<?xml version="1.0" encoding="UTF-8" standalone="no"?>
<svg id="svg4136" xmlns:rdf="http://www.w3.org/1999/02/22-rdf-syntax-ns#" xmlns="http://www.w3.org/2000/svg" height="84.189" viewBox="0 0 2000 84.188974" width="2e3" version="1.1" xmlns:cc="http://creativecommons.org/ns#" xmlns:xlink="http://www.w3.org/1999/xlink" xmlns:dc="http://purl.org/dc/elements/1.1/">
<g id="g4812" transform="scale(.66667)">
<path id="path4146" d="m196.21 0.00030787c-3.14 0.029064-6.29 2.116-9.02 6.4519-2.3382 3.7219-5.257 11.558-5.257 14.112 0 2.4928-2.4916 3.5402-8.4181 3.5402-13.362 0-21.958 8.1523-17.562 16.654 1.289 2.4926 7.1705 8.0767 8.5068 8.0767 0.58574 0 0.70503 1.3768 0.36108 4.1886-3.0367 24.825 2.4349 28.588 22.123 15.216 8.4639-5.7487 11.742-7.0384 11.742-4.6186 0 4.9339 5.8882 11.262 11.568 12.433 14.11 2.9083 21.2-5.6784 15.558-18.842-2.1895-5.1079-2.023-6.3711 1.0849-8.2048 3.466-2.045 7.092-6.8206 7.092-9.3405 0-5.1867-3.8753-7.7037-17.951-11.656-3.0728-0.86291-3.7881-1.4004-3.7881-2.846 0-0.98052-0.32252-2.6078-0.71561-3.6157-0.39308-1.0079-1.1932-3.4483-1.7775-5.4228-3.1089-10.505-8.309-16.174-13.546-16.126zm0.06 10.935c2.4547 0.15508 5.6115 4.5439 5.6115 9.2371 0 0.56429 0.33466 2.1287 0.74514 3.4762 0.41047 1.3475 1.1516 4.0027 1.6462 5.9004 0.9835 3.7738 5.5899 6.7345 12.185 7.8289 1.6552 0.27467 3.2029 0.81042 3.4385 1.1916 0.23557 0.38115 1.1244 0.69262 1.9761 0.69262 2.5734 0 1.7497 1.4622-1.8415 3.2678-6.0344 3.034-7.7477 6.4442-5.4786 10.905 0.38759 0.76192 1.1533 2.4619 1.702 3.7782 0.54869 1.3163 1.3384 3.1429 1.7545 4.0589 0.41615 0.91602 0.6381 2.7104 0.49238 3.9883-0.5549 4.8663-11.036 1.9796-11.036-3.0397 0-4.6259-4.5389-9.3521-9.0074-9.3783-3.6568-0.02145-16.638 6.7576-19.713 10.294-0.21939 0.25232-1.5675 1.1092-2.997 1.9039-4.0831 2.2699-4.305 0.3853-1.4624-12.451 1.5337-6.9253 0.83485-8.583-4.7827-11.331-8.4709-4.1444-6.058-7.8188 5.605-8.5347 3.8086-0.23377 3.9664-0.1569 4.6777 2.265 2.784 9.4789 9.452 2.9078 10.466-10.315 0.31276-4.0767 1.2176-6.9122 3.9407-12.336 0.51959-1.0349 1.2596-1.4533 2.0779-1.4017zm-97.1 20.983c-3.5943-0.09039-7.3841 3.3798-7.3841 8.9647 0 2.3625-0.47144 4.656-3.3597 16.329-1.7649 7.1329-2.5695 9.1892-7.1773 18.35-28.308 39.458-60.241 36.098-81.249 38.618v8.4034c10.924-1.6807 24.877-0.59955 41.524-5.0749 29.221-7.8556 51.853-33.08 56.979-63.508 0.93811-5.5689 1.5898-5.6002 4.3953-0.21008 11.34 21.787 40.155 44.804 68.666 54.85 1.5357 0.54112 3.5096 1.2656 4.3871 1.6101 1.502 0.58961 5.735 1.8206 11.169 3.2481 19.502 5.1234 35.975 4.9073 54.353-0.71232 12.816-3.9189 28.454-18.029 31.757-28.653 0.56679-1.8231 2.8443-2.5406 2.8443-0.89614 0 5.0128 11.569 20.327 19.682 26.055 27.181 19.189 83.47 14.35 115.38-9.9183 5.0452-3.8369 5.5951-3.7938 6.6456 0.51536 3.3368 13.688 21.407 25.101 46.171 26.29 12.613 0.60568 24.005-1.665 36.046-3.596v-8.4034c-5.8824 1.6807-36.143 3.6106-44.467 2.0007-19.34-4.03-29.06-11.98-30.54-24.972-1.05-9.21-6.76-10.098-14.9-2.316-13.36 12.768-46.31 23.798-70.93 23.748-29.91-0.06-49.57-13.442-56.81-38.674-2.6132-9.113-13.468-12.644-13.468-4.3806 0 0.83204-0.40436 2.5165-0.89778 3.7438s-1.1738 2.9499-1.5133 3.8275c-22.3 57.657-134.2 29.378-161.92-40.917-1.1556-2.9311-3.2416-4.2673-5.3982-4.3215zm230.04 16.103c-1.3142-0.01525-2.6526 0.09656-4.0014 0.34959-13.109 2.4592-8.4359 23.458 6.9311 31.147 7.9809 3.9929 13.64 1.4279 16.472-7.4662 3.7666-11.828-6.6982-23.883-19.402-24.03zm0.88301 9.3931c0.19114-0.0053 0.39144-0.0029 0.60071 0.0082 6.7248 0.35727 11.111 6.1157 9.2896 12.196-1.1001 3.6719-1.3613 3.7423-4.932 1.336-8.15-5.488-10.89-13.376-4.96-13.54zm129.09 23.116c-3.6732-0.1961-8.3008 1.6413-9.6491 4.868-1.4233 3.4065-1.5571 2.792 1.3393 6.0908 6.0374 6.8762 16.046 0.49824 12.978-8.2704-0.6022-1.7212-2.4639-2.5708-4.6678-2.6884z"/>
<use id="use4165" xlink:href="#path4146" transform="translate(500)" height="100%" width="100%" y="0" x="0"/>
<use id="use4167" xlink:href="#path4146" transform="translate(1e3)" height="100%" width="100%" y="0" x="0"/>
<use id="use4169" xlink:href="#path4146" transform="translate(1500)" height="100%" width="100%" y="0" x="0"/>
<use id="use4808" xlink:href="#path4146" transform="translate(2e3)" height="100%" width="100%" y="0" x="0"/>
<use id="use4810" xlink:href="#path4146" transform="translate(2500)" height="100%" width="100%" y="0" x="0"/>
</g>
</svg>
