<svg width="58" height="64" viewBox="0 0 58 64" fill="none" xmlns="http://www.w3.org/2000/svg">
<path fill-rule="evenodd" clip-rule="evenodd" d="M25.0119 0.396266C22.9234 0.97046 19.4925 4.47343 18.7983 6.74053L18.2219 8.62304L17.9272 7.27426C17.7652 6.53243 17.1936 5.27576 16.657 4.4819L15.6815 3.03833L13.2378 4.4819C10.2343 6.25613 5.65211 10.7757 3.97316 13.6201L2.72271 15.738L1.5678 15.1673C0.932496 14.8532 0.287522 14.5962 0.135146 14.5962C-0.0176323 14.5962 -0.0450445 15.6243 0.0742761 16.8806C0.241567 18.6464 0.620491 19.6395 1.74275 21.2557C3.07987 23.1821 3.19475 23.5714 3.19838 26.1972C3.20523 31.202 5.06397 33.6949 12.5473 38.7366C15.4973 40.7236 15.6892 40.9344 15.1091 41.5475C14.3919 42.3047 14.2819 44.3491 14.8987 45.4508C15.2687 46.1117 15.1772 46.1961 14.0924 46.1961C12.9601 46.1961 12.869 46.2979 12.869 47.5623C12.869 48.9615 14.2787 50.8055 15.3703 50.8344C15.6573 50.8421 15.3763 51.2517 14.7455 51.745L13.5986 52.6421L15.7315 53.658C22.0248 56.6561 30.4583 52.4814 26.8307 48.1634C26.5824 47.8678 23.9827 46.0929 21.0533 44.2184L15.7274 40.811L16.2857 39.5536C16.5929 38.8619 17.8434 36.1285 19.0648 33.4791L21.2855 28.662L19.3115 28.2254C16.4325 27.5888 15.1264 26.7159 11.7729 23.1883L8.76735 20.0264L11.3223 20.7293C12.7271 21.1158 14.5758 21.7135 15.4304 22.0576C17.5007 22.8912 22.0708 25.8238 23.4422 27.1988L24.5422 28.3021L22.3336 33.6749C21.119 36.6298 20.125 39.2453 20.125 39.4865C20.125 39.7278 22.0962 41.171 24.5052 42.6936L28.8854 45.4624L33.0713 42.7043C35.3734 41.1872 37.3297 39.8812 37.4184 39.8018C37.5071 39.7228 36.5364 36.9497 35.2614 33.6398C33.9863 30.3303 33.0975 27.4982 33.2861 27.3468C38.51 23.1536 42.2928 21.2106 47.2317 20.184L49.5472 19.7023L46.257 23.1478C42.7894 26.7787 41.1867 27.8154 38.3379 28.2689C37.262 28.4401 36.6714 28.7152 36.7924 28.9896C36.8996 29.2331 38.175 31.9966 39.6262 35.13L42.265 40.8272L37.0318 44.1352C30.1701 48.4729 29.4195 49.4108 30.7876 51.94C32.1006 54.367 38.192 55.4765 41.7426 53.935C43.9359 52.9828 44.1274 52.5828 42.8503 51.6221C42.0477 51.0186 41.9518 50.8205 42.4617 50.8205C43.6755 50.8205 45.1178 49.0517 45.1178 47.5623C45.1178 46.2979 45.0267 46.1961 43.8944 46.1961C42.8096 46.1961 42.7181 46.1117 43.0881 45.4508C43.686 44.3826 43.6025 42.6465 42.9075 41.6978C42.3343 40.9159 42.4569 40.7794 45.8301 38.4445C53.2409 33.3141 55.0956 30.7657 54.6606 26.3113C54.4377 24.0288 54.4901 23.85 56.0643 21.5343C57.3566 19.6325 57.7444 18.6537 57.9145 16.8621C58.1411 14.4729 58.0024 14.311 56.4387 15.1392C55.4963 15.6386 55.4044 15.5665 53.5867 12.9098C52.554 11.4 50.7247 9.24193 49.5218 8.11436C46.8959 5.65226 42.8048 2.96126 41.9236 3.11617C41.5741 3.17783 40.7239 4.32391 40.0342 5.66305C38.8007 8.05809 38.7761 8.0789 38.5346 6.92474C38.0025 4.3821 35.1207 1.44561 32.0913 0.35927C30.7119 -0.135538 26.8722 -0.115499 25.0119 0.396266ZM27.381 54.4453C25.6649 56.2765 23.3249 57.3521 21.032 57.3632C20.0895 57.3679 19.3188 57.4669 19.3188 57.5837C19.3188 58.0665 20.6833 60.3259 21.4822 61.1656C21.9551 61.6628 22.829 62.3117 23.4244 62.6077C24.4213 63.1036 24.5277 63.0828 24.774 62.3418C25.0272 61.5787 25.0965 61.6007 26.1164 62.7688C26.9791 63.7568 27.4938 64 28.7217 64C30.3551 64 31.6189 63.195 32.057 61.8751C32.3013 61.139 32.3505 61.1575 32.7726 62.1422L33.2261 63.1996L34.953 61.7857C35.9031 61.008 37.0407 59.6966 37.4809 58.8719L38.2815 57.3717L36.7613 57.3679C34.726 57.3629 31.4822 55.8692 29.9984 54.2533L28.7918 52.94L27.381 54.4453Z" fill="white"/>
</svg>
