<svg width="848" height="912" viewBox="0 0 848 912" fill="none" xmlns="http://www.w3.org/2000/svg">
<path fill-rule="evenodd" clip-rule="evenodd" d="M365.691 -6.21081C335.155 2.17781 284.994 53.354 274.845 86.4749L266.417 113.977L262.108 94.2724C259.739 83.4348 251.382 65.0755 243.537 53.4778L229.274 32.3881L193.546 53.4778C149.632 79.3981 82.6377 145.426 58.0903 186.981L39.8079 217.923L22.9223 209.585C13.6337 204.997 4.20377 201.241 1.97593 201.241C-0.257796 201.241 -0.658582 216.262 1.08597 234.616C3.53187 260.412 9.07201 274.92 25.4802 298.532C45.0298 326.677 46.7095 332.363 46.7625 370.725C46.8627 443.841 74.0388 480.261 183.45 553.918C226.581 582.946 229.386 586.025 220.905 594.983C210.42 606.045 208.811 635.912 217.829 652.008C223.239 661.664 221.901 662.897 206.041 662.897C189.486 662.897 188.154 664.383 188.154 682.855C188.154 703.297 208.764 730.236 224.724 730.659C228.921 730.771 224.813 736.756 215.589 743.962L198.821 757.069L230.005 771.909C322.018 815.71 445.321 754.721 392.283 691.638C388.653 687.319 350.644 661.388 307.814 634.004L229.946 584.224L238.109 565.853C242.6 555.748 260.882 515.814 278.74 477.109L311.209 406.734L282.347 400.356C240.254 391.055 221.159 378.303 172.128 326.767L128.185 280.573L165.539 290.842C186.079 296.489 213.108 305.221 225.602 310.248C255.873 322.426 322.69 365.27 342.741 385.357L358.825 401.476L326.533 479.969C308.775 523.139 294.241 561.349 294.241 564.874C294.241 568.398 323.061 589.482 358.282 611.726L422.324 652.177L483.525 611.884C517.184 589.719 545.786 570.639 547.083 569.479C548.379 568.325 534.187 527.812 515.545 479.456C496.903 431.106 483.908 389.732 486.666 387.519C563.043 326.26 618.35 297.874 690.56 282.875L724.414 275.838L676.309 326.175C625.611 379.221 602.178 394.365 560.526 400.992C544.796 403.491 536.162 407.511 537.93 411.52C539.498 415.078 558.145 455.45 579.363 501.227L617.943 584.46L541.431 632.788C441.107 696.158 430.133 709.862 450.137 746.811C469.332 782.268 558.393 798.477 610.305 775.957C642.373 762.046 645.172 756.202 626.501 742.166C614.767 733.35 613.364 730.456 620.819 730.456C638.565 730.456 659.653 704.615 659.653 682.855C659.653 664.383 658.321 662.897 641.766 662.897C625.906 662.897 624.568 661.664 629.978 652.008C638.719 636.402 637.499 611.039 627.338 597.178C618.957 585.755 620.749 583.762 670.068 549.65C778.418 474.699 805.535 437.468 799.176 372.392C795.917 339.045 796.683 336.433 819.698 302.603C838.593 274.819 844.263 260.519 846.75 234.345C850.063 199.44 848.035 197.075 825.173 209.174C811.394 216.47 810.05 215.418 783.475 176.605C768.375 154.547 741.63 123.019 724.043 106.546C685.651 70.576 625.835 31.2621 612.951 33.5253C607.841 34.4261 595.412 51.1696 585.327 70.7336C567.293 105.724 566.933 106.028 563.403 89.1661C555.623 52.0197 513.488 9.11953 469.197 -6.75128C449.028 -13.9801 392.891 -13.6874 365.691 -6.21081ZM400.328 783.411C375.239 810.165 341.026 825.878 307.502 826.041C293.722 826.109 282.454 827.556 282.454 829.261C282.454 836.316 302.404 869.324 314.085 881.592C320.999 888.854 333.776 898.335 342.481 902.659C357.057 909.905 358.613 909.601 362.214 898.774C365.915 887.627 366.929 887.948 381.84 905.012C394.452 919.448 401.979 923 419.931 923C443.813 923 462.289 911.239 468.696 891.957C472.268 881.203 472.987 881.474 479.157 895.858L485.788 911.307L511.037 890.65C524.928 879.289 541.56 860.13 547.996 848.082L559.701 826.165L537.476 826.109C507.718 826.036 460.291 804.214 438.597 780.607L420.957 761.421L400.328 783.411Z" fill="#16929A" fill-opacity="0.2"/>
</svg>
