<svg width="1192" height="88" viewBox="0 0 1192 88" fill="none" xmlns="http://www.w3.org/2000/svg">
<path d="M0.401587 2.11999H21.4016L52.2416 52.04V2.11999H73.4816V86H52.6016L21.6416 35.96V86H0.401587V2.11999ZM179.828 87.8C171.348 87.8 163.668 85.96 156.788 82.28C149.988 78.6 144.588 73.48 140.588 66.92C136.668 60.28 134.708 52.68 134.708 44.12C134.708 35.56 136.668 27.96 140.588 21.32C144.588 14.68 149.988 9.52 156.788 5.83999C163.668 2.15999 171.348 0.319994 179.828 0.319994C188.228 0.319994 195.828 2.15999 202.628 5.83999C209.508 9.52 214.908 14.68 218.828 21.32C222.748 27.96 224.708 35.56 224.708 44.12C224.708 52.68 222.748 60.28 218.828 66.92C214.908 73.48 209.508 78.6 202.628 82.28C195.828 85.96 188.228 87.8 179.828 87.8ZM179.828 67.88C184.068 67.88 187.948 66.92 191.468 65C194.988 63.08 197.788 60.32 199.868 56.72C201.948 53.12 202.988 48.92 202.988 44.12C202.988 39.32 201.948 35.16 199.868 31.64C197.868 28.04 195.108 25.28 191.588 23.36C188.068 21.36 184.148 20.36 179.828 20.36C175.428 20.36 171.468 21.36 167.948 23.36C164.428 25.28 161.628 28.04 159.548 31.64C157.548 35.16 156.548 39.32 156.548 44.12C156.548 48.92 157.548 53.12 159.548 56.72C161.628 60.32 164.428 63.08 167.948 65C171.548 66.92 175.508 67.88 179.828 67.88ZM285.884 2.11999H323.564C333.404 2.11999 341.084 4.59999 346.604 9.56C352.204 14.52 355.004 21.64 355.004 30.92C355.004 37.16 353.644 42.48 350.924 46.88C348.204 51.28 344.364 54.56 339.404 56.72L354.284 86H332.444L319.124 59.72H307.124V86H285.884V2.11999ZM319.844 41.84C324.084 41.84 327.364 41.04 329.684 39.44C332.004 37.76 333.164 34.92 333.164 30.92C333.164 26.76 332.004 23.92 329.684 22.4C327.444 20.8 324.164 20 319.844 20H307.124V41.84H319.844ZM431.484 20H407.844V2.11999H476.484V20H452.724V86H431.484V20ZM535.859 2.11999H557.099V34.52H589.979V2.11999H611.219V86H589.979V52.16H557.099V86H535.859V2.11999ZM768.373 2.11999H789.613V68.12H826.093V86H768.373V2.11999ZM884.923 2.11999H906.163V86H884.923V2.11999ZM1012.44 87.8C1003.96 87.8 996.276 85.96 989.396 82.28C982.596 78.6 977.196 73.48 973.196 66.92C969.276 60.28 967.316 52.68 967.316 44.12C967.316 35.56 969.276 27.96 973.196 21.32C977.196 14.68 982.596 9.52 989.396 5.83999C996.276 2.15999 1003.96 0.319994 1012.44 0.319994C1020.84 0.319994 1028.44 2.15999 1035.24 5.83999C1042.12 9.52 1047.52 14.68 1051.44 21.32C1055.36 27.96 1057.32 35.56 1057.32 44.12C1057.32 52.68 1055.36 60.28 1051.44 66.92C1047.52 73.48 1042.12 78.6 1035.24 82.28C1028.44 85.96 1020.84 87.8 1012.44 87.8ZM1012.44 67.88C1016.68 67.88 1020.56 66.92 1024.08 65C1027.6 63.08 1030.4 60.32 1032.48 56.72C1034.56 53.12 1035.6 48.92 1035.6 44.12C1035.6 39.32 1034.56 35.16 1032.48 31.64C1030.48 28.04 1027.72 25.28 1024.2 23.36C1020.68 21.36 1016.76 20.36 1012.44 20.36C1008.04 20.36 1004.08 21.36 1000.56 23.36C997.036 25.28 994.236 28.04 992.156 31.64C990.156 35.16 989.156 39.32 989.156 44.12C989.156 48.92 990.156 53.12 992.156 56.72C994.236 60.32 997.036 63.08 1000.56 65C1004.16 66.92 1008.12 67.88 1012.44 67.88ZM1118.49 2.11999H1139.49L1170.33 52.04V2.11999H1191.57V86H1170.69L1139.73 35.96V86H1118.49V2.11999Z" fill="white"/>
</svg>
